<svg width="25" height="24" viewBox="0 0 25 24" fill="none" xmlns="http://www.w3.org/2000/svg">
<path d="M4.49297 4.29289C4.30543 4.48043 4.20007 4.73478 4.20007 5V7C4.20007 7.26522 4.30543 7.51957 4.49297 7.70711C4.6805 7.89464 4.93486 8 5.20007 8H19.2001C19.4653 8 19.7196 7.89464 19.9072 7.70711C20.0947 7.51957 20.2001 7.26522 20.2001 7V5C20.2001 4.73478 20.0947 4.48043 19.9072 4.29289C19.7196 4.10536 19.4653 4 19.2001 4H5.20007C4.93486 4 4.6805 4.10536 4.49297 4.29289Z" stroke="#C55637" stroke-width="1.5" stroke-linecap="round" stroke-linejoin="round"/>
<path d="M4.49297 12.2929C4.30543 12.4804 4.20007 12.7348 4.20007 13V19C4.20007 19.2652 4.30543 19.5196 4.49297 19.7071C4.6805 19.8946 4.93486 20 5.20007 20H11.2001C11.4653 20 11.7196 19.8946 11.9072 19.7071C12.0947 19.5196 12.2001 19.2652 12.2001 19V13C12.2001 12.7348 12.0947 12.4804 11.9072 12.2929C11.7196 12.1054 11.4653 12 11.2001 12H5.20007C4.93486 12 4.6805 12.1054 4.49297 12.2929Z" stroke="#C55637" stroke-width="1.5" stroke-linecap="round" stroke-linejoin="round"/>
<path d="M16.493 12.2929C16.3054 12.4804 16.2001 12.7348 16.2001 13V19C16.2001 19.2652 16.3054 19.5196 16.493 19.7071C16.6805 19.8946 16.9349 20 17.2001 20H19.2001C19.4653 20 19.7196 19.8946 19.9072 19.7071C20.0947 19.5196 20.2001 19.2652 20.2001 19V13C20.2001 12.7348 20.0947 12.4804 19.9072 12.2929C19.7196 12.1054 19.4653 12 19.2001 12H17.2001C16.9349 12 16.6805 12.1054 16.493 12.2929Z" stroke="#C55637" stroke-width="1.5" stroke-linecap="round" stroke-linejoin="round"/>
</svg>
