<svg width="25" height="24" viewBox="0 0 25 24" fill="none" xmlns="http://www.w3.org/2000/svg">
<path d="M2.91748 5.75C2.91748 4.23122 4.1487 3 5.66748 3H20.1675C21.6863 3 22.9175 4.23122 22.9175 5.75V15.25C22.9175 16.7688 21.6863 18 20.1675 18H10.9175V17.0005C11.0375 16.8408 11.1481 16.6737 11.2486 16.5H20.1675C20.8578 16.5 21.4175 15.9404 21.4175 15.25V5.75C21.4175 5.05964 20.8578 4.5 20.1675 4.5H5.66748C4.97712 4.5 4.41748 5.05964 4.41748 5.75V9.66891C3.83212 10.0075 3.32177 10.4614 2.91748 10.9995V5.75ZM7.66748 7C7.25327 7 6.91748 7.33579 6.91748 7.75C6.91748 8.16421 7.25327 8.5 7.66748 8.5H18.1675C18.5817 8.5 18.9175 8.16421 18.9175 7.75C18.9175 7.33579 18.5817 7 18.1675 7H7.66748ZM13.6675 12C13.2533 12 12.9175 12.3358 12.9175 12.75C12.9175 13.1642 13.2533 13.5 13.6675 13.5H18.1675C18.5817 13.5 18.9175 13.1642 18.9175 12.75C18.9175 12.3358 18.5817 12 18.1675 12H13.6675ZM6.91715 10C4.70765 10 2.9165 11.7911 2.9165 14.0006C2.9165 16.2101 4.70765 18.0013 6.91715 18.0013C9.12664 18.0013 10.9178 16.2101 10.9178 14.0006C10.9178 11.7911 9.12664 10 6.91715 10ZM9.91824 18.001C9.08235 18.6291 8.04321 19.0013 6.91715 19.0013C5.79198 19.0013 4.7536 18.6297 3.91806 18.0025L3.91758 21.2487C3.91758 21.8195 4.52208 22.1681 5.00767 21.9176L5.09715 21.8635L6.9175 20.5912L8.73715 21.8635C9.20505 22.1904 9.83707 21.8946 9.90981 21.353L9.91671 21.2487L9.91824 18.001Z" fill="white"/>
</svg>
