<svg width="25" height="24" viewBox="0 0 25 24" fill="none" xmlns="http://www.w3.org/2000/svg">
<path d="M9.27542 5H7.2693C6.73724 5 6.22698 5.21071 5.85076 5.58579C5.47454 5.96086 5.26318 6.46957 5.26318 7V19C5.26318 19.5304 5.47454 20.0391 5.85076 20.4142C6.22698 20.7893 6.73724 21 7.2693 21H17.2999C17.8319 21 18.3422 20.7893 18.7184 20.4142C19.0946 20.0391 19.306 19.5304 19.306 19V7C19.306 6.46957 19.0946 5.96086 18.7184 5.58579C18.3422 5.21071 17.8319 5 17.2999 5H15.2938M9.27542 5C9.27542 5.53043 9.48677 6.03914 9.86299 6.41421C10.2392 6.78929 10.7495 7 11.2815 7H13.2876C13.8197 7 14.33 6.78929 14.7062 6.41421C15.0824 6.03914 15.2938 5.53043 15.2938 5M9.27542 5C9.27542 4.46957 9.48677 3.96086 9.86299 3.58579C10.2392 3.21071 10.7495 3 11.2815 3H13.2876C13.8197 3 14.33 3.21071 14.7062 3.58579C15.0824 3.96086 15.2938 4.46957 15.2938 5M12.2846 12H15.2938M12.2846 16H15.2938M9.27542 12H9.28545M9.27542 16H9.28545" stroke="white" stroke-width="1.5" stroke-linecap="round" stroke-linejoin="round"/>
</svg>
