<svg width="25" height="24" viewBox="0 0 25 24" fill="none" xmlns="http://www.w3.org/2000/svg">
<path d="M13.512 8C13.4811 8.34341 13.4185 8.67772 13.3273 9H17.5307V15H7.5255V12.977C7.18189 12.9457 6.84741 12.8828 6.52498 12.7913V16.5C6.52498 16.7761 6.30101 17 6.02473 17C5.74844 17 5.52447 16.7761 5.52447 16.5V12.3973C5.16643 12.2138 4.83114 11.9923 4.52395 11.738V16.5C4.52395 17.3284 5.19587 18 6.02473 18C6.85358 18 7.5255 17.3284 7.5255 16.5V16H17.5307V16.5C17.5307 17.3284 18.2026 18 19.0315 18C19.8603 18 20.5322 17.3284 20.5322 16.5V7.5C20.5322 6.67157 19.8603 6 19.0315 6C18.2026 6 17.5307 6.67157 17.5307 7.5V8H13.512ZM19.0315 7C19.3077 7 19.5317 7.22386 19.5317 7.5V16.5C19.5317 16.7761 19.3077 17 19.0315 17C18.7552 17 18.5312 16.7761 18.5312 16.5V7.5C18.5312 7.22386 18.7552 7 19.0315 7ZM8.03455 3C5.54799 3 3.53223 5.01472 3.53223 7.5C3.53223 9.98528 5.54799 12 8.03455 12C10.5211 12 12.5369 9.98528 12.5369 7.5C12.5369 5.01472 10.5211 3 8.03455 3ZM10.6395 8.39645C10.8348 8.59171 10.8348 8.90829 10.6395 9.10355L8.88855 10.8535C8.84058 10.9015 8.7853 10.9377 8.7263 10.9621C8.66732 10.9865 8.60264 11 8.53481 11C8.46698 11 8.4023 10.9865 8.34332 10.9621C8.28519 10.938 8.23068 10.9026 8.1832 10.8557L6.43017 9.10355C6.2348 8.90829 6.2348 8.59171 6.43017 8.39645C6.62554 8.20118 6.94228 8.20118 7.13764 8.39645L8.03455 9.29289V7.75C8.03455 6.7835 7.25065 6 6.28365 6H6.03352C5.75724 6 5.53326 5.77614 5.53326 5.5C5.53326 5.22386 5.75724 5 6.03352 5H6.28365C7.80321 5 9.03507 6.23122 9.03507 7.75V9.29289L9.93199 8.39645C10.1273 8.20118 10.4441 8.20118 10.6395 8.39645Z" fill="white"/>
</svg>
