<svg width="24" height="24" viewBox="0 0 24 24" fill="none" xmlns="http://www.w3.org/2000/svg">
<path d="M12.0001 4C14.4487 4 16.8491 4.20627 19.1849 4.60237C19.6586 4.68269 20 5.09649 20 5.57691V6.50491C20 7.03534 19.7893 7.54405 19.4142 7.91912L14.5858 12.7475C14.2107 13.1226 14 13.6313 14 14.1618V16.7639C14 17.5215 13.572 18.214 12.8944 18.5528L10 20V14.1618C10 13.6313 9.78929 13.1226 9.41421 12.7475L4.58579 7.91912C4.21071 7.54405 4 7.03534 4 6.50491V5.57693C4 5.09651 4.3414 4.68271 4.81506 4.60239C7.15093 4.20627 9.5514 4 12.0001 4Z" stroke="#6B7280" stroke-width="1.5" stroke-linecap="round" stroke-linejoin="round"/>
</svg>
