<svg width="13" height="13" viewBox="0 0 13 13" fill="none" xmlns="http://www.w3.org/2000/svg">
<path d="M1.11449 1.11449C0.881111 1.34787 0.75 1.6644 0.75 1.99444V2.61667C0.75 7.77116 4.92884 11.95 10.0833 11.95H10.7056C11.0356 11.95 11.3521 11.8189 11.5855 11.5855C11.8189 11.3521 11.95 11.0356 11.95 10.7056V8.66529C11.95 8.53464 11.9089 8.4073 11.8326 8.30132C11.7562 8.19533 11.6483 8.11608 11.5244 8.0748L8.72875 7.14271C8.58668 7.09548 8.43233 7.10107 8.29404 7.15844C8.15575 7.21582 8.04278 7.32113 7.97587 7.45507L7.27276 8.85942C5.74922 8.17105 4.52895 6.95078 3.84058 5.42724L5.24493 4.72413C5.37887 4.65722 5.48418 4.54425 5.54156 4.40596C5.59893 4.26766 5.60452 4.11332 5.55729 3.97124L4.6252 1.1756C4.58395 1.05175 4.50479 0.944011 4.39893 0.867631C4.29307 0.791251 4.16587 0.750099 4.03533 0.75H1.99444C1.6644 0.75 1.34787 0.881111 1.11449 1.11449Z" stroke="#111928" stroke-linecap="round" stroke-linejoin="round"/>
</svg>
