<svg version="1.2" xmlns="http://www.w3.org/2000/svg" viewBox="0 0 252 268" width="25" height="27">
	<path class="s0" d="m94.6 153.7q1.2 0 2.3 0 3.9 0 7.7 0 2.7 0 5.3-0.1 5.6 0 11.2 0 7.2 0 14.4 0 5.5-0.1 11-0.1 2.6 0 5.2 0 3.7 0 7.4 0 1.1 0 2.2 0c4.9 0 7.3 1.1 10.7 4.5 1.5 2.1 1.5 2.1 2.7 4.4 2.1 3.6 4.3 7.2 6.6 10.7 3.2 4.9 6.4 9.8 9.3 14.9q0.7 1.2 1.4 2.5c1.2 3 1.2 5.3 1 8.5-0.8 0.3-0.8 0.3-1.7 0.6-6.6 2.7-12.8 6.4-16.7 12.6-1.6 1.8-1.6 1.8-4.4 2.4-4.5-0.9-6.4-3.2-9.5-6.5-4-5-4-5-9.7-7.3-5.5-0.2-8.6 0.4-13 4.2q-2 2.5-4 5c-2.4 2.3-4 3.8-7.3 4.5-4.1-0.7-6.2-3.5-8.9-6.4-5-5.6-5-5.6-11.9-7.6-5.1 0-7.5 2.1-11.1 5.5q-1.7 1.9-3.4 3.8c-3.8 4.1-3.8 4.1-7.2 4.7-4.2-0.7-6.2-2.8-8.9-5.9-4.5-4.8-7.9-7.6-14.3-9.6-0.6-5.8 1.4-9.3 4.2-14.2q0.6-1.1 1.3-2.3c3.6-6.2 7.4-12.1 11.4-18q0.9-1.2 1.7-2.5 0.8-1.1 1.6-2.3 0.7-1 1.4-2c3.5-4.2 7-4 12-4z"/>
	<path class="s1" d="m61 207c3.7 0.1 5 1 7.8 3.5q1.5 1.5 2.9 3c4.8 5.3 4.8 5.3 11.6 6.8 4.7-0.1 7-1.1 10.7-4.3 2.2-2.4 4.5-4.8 6.7-7.3 2.3-1.7 2.3-1.7 5.2-1.8 3.9 1.4 6.1 3.6 8.9 6.6 4.7 5.3 4.7 5.3 11.5 6.8 5.8-0.1 8.8-2.4 12.9-6.6q2.3-2.4 4.6-4.9c2.2-1.8 2.2-1.8 4.6-2.4 3.9 0.9 6.1 3.6 8.8 6.5 5 5.7 5 5.7 12.1 7.4 4.7-0.1 7-1.1 10.7-4.3 2.3-2.4 4.5-4.8 6.8-7.3 2.2-1.7 2.2-1.7 4.9-1.5 2.3 0.8 2.3 0.8 3.3 1.8 1.3 11.8-2.7 21.8-10 31-8.5 10.1-20.9 16.8-34.1 18.4-3.1 0.1-6.3 0.2-9.4 0.1q-1.7 0-3.5 0-3.6 0-7.3 0-5.5 0-10.9 0c-18.5 0.1-33.6-1.5-47.5-14.7-8.9-9.4-13.7-19.8-13.6-32.8 0.3-2 0.3-2 2.3-4z"/>
	<path class="s0" d="m90.5 97.6q1.3 0 2.7 0 4.2 0 8.5 0 3 0 5.9 0 6.2 0 12.5 0 7.9 0 15.9 0 6.1 0 12.2 0 3 0 5.9 0 4.1 0 8.2 0c1.2 0 1.2 0 2.5 0 4.5 0 7.6 0.5 11.2 3.4 1.2 4.9 0.4 9.7-1.1 14.4-2.4 3.2-4.4 4.7-7.9 6.6-2.8 0.4-5.2 0.6-8 0.5q-1.2 0.1-2.4 0.1-3.8 0-7.7 0-2.6 0-5.3 0-5.7 0-11.3 0-7.2 0-14.4 0.1-5.5 0-11 0-2.7 0-5.3 0.1c-15.6 0.1-15.6 0.1-20.2-3.7-3.2-4.1-3.6-6.9-3.7-12.1q-0.1-1.6-0.1-3.2c0.4-2.8 0.4-2.8 1.9-4.5 3.6-1.9 7.1-1.7 11-1.7z"/>
	<path class="s2" d="m130 12c16.1 8.6 30.3 23 37 40q0 2 0 4-2.8 1.1-5.7 2.1-1.6 0.5-3.2 1.1c-3.4 0.9-4.9 1.2-8.1-0.2-1.5-2.4-2.7-4.6-3.9-7.1-5.7-11.3-5.7-11.3-16.1-17.9-4.1-0.5-6.3-0.3-10 1.4-6.9 5.9-11 13-14.8 21.2-1.2 2.4-1.2 2.4-2.2 3.4-6.2-0.3-10.6-1.9-16-5 4.5-19.6 19.2-31.1 35-42 2.9-1.4 4.8-1.3 8-1z"/>
	<path class="s2" d="m126.4 40.5c4.3 0.6 5.5 1.6 8.6 4.5 1.5 2.2 2.8 4.3 4.1 6.6q0.5 0.9 1.1 1.9c5.8 10.8 6.8 21.4 5.8 33.5q-1 2-2 4c-11.2 0-22.4 0-34 0-3.8-13.3-2.5-25 3.7-37.3 6.9-12.4 6.9-12.4 12.7-13.2z"/>
	<path class="s3" d="m93 130c22.4 0 44.9 0 68 0 2 4 2 4 3 17-24.4 0-48.8 0-74 0 0-8 0-8 3-17z"/>
	<path class="s4" d="m180 62c3 2 3 2 3.4 4.1 0 7.7-1.2 14.9-4.4 21.9-3 2.8-4.9 3.4-8.9 3.3-1.4 0-1.4 0-2.9 0q-1.4 0-2.9 0-1.4-0.1-2.9-0.1c-7.2 0-7.2 0-8.4-1.2-0.3-3.4-0.3-6.9-0.3-10.4q-0.1-1.4-0.1-2.9 0-1.4 0-2.8 0-1.3-0.1-2.6c0.5-2.3 0.5-2.3 2.3-4 7.3-4.3 16.8-6.7 25.2-5.3z"/>
	<path class="s0" d="m77.3 61.6c6.6 0.1 12.6 2 18.7 4.4q1.4 0.5 2.9 1c2.6 2.5 2.5 3.3 2.6 6.9q0 2.8-0.1 5.7c0 1.5 0 1.5-0.1 3-0.1 7.2-0.1 7.2-1.3 8.4-3.4 0.3-6.9 0.2-10.3 0.2q-1.5 0.1-2.9 0.1-1.4 0-2.9 0-1.2 0-2.5 0.1c-2.9-0.5-4.3-1.4-6.4-3.4-3.4-7.4-5.3-15.9-4-24 2.4-2.4 3-2.3 6.3-2.4z"/>
	<path class="s5" d="m181 204c1 3 1 3 1 6q0.5 2 1 4-1.7 1.5-3.4 2.9-0.9 0.9-1.9 1.7c-3.3 2.7-6.1 2.8-10.3 2.8-4.1-0.7-6.6-3.4-9.4-6.4 1.7-1.7 3.3-3.3 5-5 0.8 0.7 0.8 0.7 1.6 1.4 2.8 1.9 5.1 2.2 8.4 2.6q0.3-0.8 0.6-1.6c2-3.4 4.6-5.7 7.4-8.4z"/>
	<path class="s6" d="m148.4 206.2c4.2 1.3 6.7 4.6 9.6 7.8-1 2-1 2-3 2.8q-1 0.6-2 1.2c-0.7 2.5-0.7 2.5-1 5q-1 1-2 2c-2.6-0.4-2.6-0.4-5-1-0.6-3-0.6-3-1.3-6-0.8-2.3-1.9-3.4-3.7-5 4.9-5.6 4.9-5.6 8.4-6.8z"/>
	<path class="s7" d="m167 197q3.5 0.4 7 1 0.3 2.1 0.5 4.3 0.1 1.1 0.3 2.3c0.4 4.1 0.5 5.9-1.8 9.4-3.7 0.6-5.4 0.4-8.4-1.7-1.6-2.3-1.6-2.3-1.3-5q0.3-1.2 0.7-2.3 1.5 0 3 0c-0.3-1.7-0.3-1.7-0.6-3.4q-0.2-1.8-0.4-3.6 0.5-0.5 1-1z"/>
	<path class="s8" d="m85 119q1.5 0.5 3 1 3.8 0.2 7.6 0.2c1.1 0 1.1 0 2.3 0q3.9 0.1 7.7 0.1 2.6 0 5.3 0.1 7 0.1 13.9 0.1 7.1 0.1 14.3 0.2 13.9 0.2 27.9 0.3 0 0.5 0 1-15.8 0.1-31.6 0.1-7.3 0-14.6 0.1-7.1 0-14.2 0-2.7 0-5.4 0-3.8 0-7.5 0-1.2 0-2.3 0c-5.2 0-5.2 0-7.4-2.2q0.5-0.5 1-1z"/>
	<path class="s9" d="m122 197q3.5-0.1 7 0c1 1 1 1 1.1 3.6q-0.1 1.2-0.1 2.4c-3.2 0.7-5.7 1-9 1 0.3-2.3 0.7-4.6 1-7zm-10 4c2.5 0.5 2.5 0.5 5 1q0 1 0 2 1.5-0.5 3-1 0.5 1 1 2-1 0-2 0 0 1 0 2 2 0.5 4 1-0.5 1.5-1 3c-7.5-6.2-7.5-6.2-10-10z"/>
	<path class="s10" d="m151 218c0.6 2.4 0.6 2.4 1 5q-1 1-2 2c-2.6-0.4-2.6-0.4-5-1q0-3 0-6c2.5-1.2 3.4-0.8 6 0z"/>
	<path class="s11" d="m104 217c2.1 0.4 2.1 0.4 4 1 0.6 2.4 0.6 2.4 1 5q-1 1-2 2c-2.1-0.4-2.1-0.4-4-1-0.6-2.4-0.6-2.4-1-5q1-1 2-2z"/>
	<path class="s12" d="m81 197q3 0 6 0c0.6 2.4 0.6 2.4 1 5q-1 1-2 2c-2.6-0.4-2.6-0.4-5-1q0-3 0-6z"/>
	<path class="s13" d="m124 197q2.5-0.1 5 0c1 1 1 1 1.1 3.6q-0.1 1.2-0.1 2.4c-2.4 0.6-2.4 0.6-5 1q-1-1-2-2c0.4-2.6 0.4-2.6 1-5z"/>
	<path class="s14" d="m167 197q2.5-0.1 5 0c1 1 1 1 1.1 3.6q-0.1 1.2-0.1 2.4-2.5 0.5-5 1c-2-3-2-3-1.6-5.2q0.3-0.9 0.6-1.8z"/>
	<path class="s15" d="m73 172q1 1.5 2 3c-2.2 3.3-3.2 4.1-7 6 1.7-3 3.3-5.9 5-9z"/>
</svg>