<svg width="21" height="20" viewBox="0 0 21 20" fill="none" xmlns="http://www.w3.org/2000/svg">
<path d="M12.4702 2.51758L12.4686 2.51715C12.3295 2.48011 12.1801 2.50455 12.0593 2.58459C11.7913 2.76314 11.5669 3.02817 11.3779 3.31985L11.3778 3.32002C11.1844 3.61818 11.0081 3.97122 10.8482 4.35591L10.848 4.35631C10.5277 5.12521 10.2542 6.06001 10.0318 7.01176L10.0318 7.01192C9.74968 8.21761 9.54035 9.49076 9.4261 10.5325L9.33592 11.3549L8.64975 10.8927C8.08821 10.5145 7.74861 10.0793 7.53097 9.62851L12.4702 2.51758ZM12.4702 2.51758C12.6086 2.55393 12.7252 2.64811 12.7904 2.77746M12.4702 2.51758L14.0509 4.88701M14.0509 4.88701L14.0508 4.88678C13.6611 4.37741 13.2831 3.76077 12.7904 2.77746M14.0509 4.88701C14.4434 5.39952 14.856 5.81584 15.4471 6.40419M14.0509 4.88701L15.4471 6.40419M12.7904 2.77746C12.7904 2.77729 12.7903 2.77711 12.7902 2.77694L13.2372 2.55297L12.7906 2.77782C12.7906 2.7777 12.7905 2.77758 12.7904 2.77746ZM6.7732 6.29652L6.77215 6.29609C6.58268 6.2178 6.3661 6.26117 6.22276 6.40407C4.95024 7.67371 4.31348 9.33776 4.31348 11C4.31348 12.6623 4.95029 14.3264 6.22289 15.596C8.77008 18.1343 12.8997 18.1343 15.4469 15.596L6.7732 6.29652ZM6.7732 6.29652C6.96034 6.37334 7.08197 6.5554 7.08197 6.75701M6.7732 6.29652L7.08197 6.75701M12.9624 10.879L13.3151 10.5246C14.0009 11.2072 14.3441 12.1044 14.3441 13C14.3441 13.8954 14.0011 14.7924 13.3155 15.4749L12.9624 10.879ZM12.9624 10.879C13.5502 11.464 13.8441 12.232 13.8441 13C13.8441 13.768 13.5502 14.536 12.9624 15.121M12.9624 10.879L11.1402 9.22415C11.1748 9.29299 11.2085 9.35892 11.2415 9.42222C10.6852 10.4218 10.3334 12.6624 10.3334 13.5V13C10.1666 13 10.0085 12.9944 9.85935 12.9844M12.9624 10.879L13.3157 10.5252C13.0194 10.2293 12.8244 10.032 12.6399 9.79091C12.4577 9.55283 12.2766 9.25929 12.0341 8.77584L11.7809 8.2709L11.3104 8.58358C11.1371 8.69875 11.0028 8.86239 10.8981 9.02336C10.7906 9.18869 10.696 9.3802 10.6123 9.58132C10.4449 9.98342 10.3043 10.4656 10.1913 10.9486C10.0247 11.6603 9.90836 12.4164 9.85935 12.9844M12.9624 10.879L8.07022 12.5639M12.9624 15.121C11.7878 16.293 9.88198 16.293 8.7074 15.121M12.9624 15.121L13.3151 15.4754C13.3152 15.4752 13.3153 15.4751 13.3155 15.475L12.9624 15.121ZM8.7074 15.121C8.26703 14.6827 7.99163 14.1417 7.88118 13.575C7.8481 13.5616 7.81767 13.5489 7.78991 13.5368C7.72713 13.5096 7.67799 13.4861 7.64277 13.4685C7.62516 13.4597 7.61103 13.4523 7.6004 13.4466L7.58709 13.4394L7.58241 13.4368L7.58057 13.4358L7.57978 13.4353L7.57941 13.4351C7.57923 13.435 7.57906 13.4349 7.82571 13M8.7074 15.121L8.35468 15.4754C8.35463 15.4753 8.35458 15.4753 8.35453 15.4752C7.66879 14.7926 7.32571 13.8955 7.32571 13V12.1416L8.06949 12.5635C8.06947 12.5634 8.06947 12.5634 8.0695 12.5635C8.06952 12.5635 8.07014 12.5638 8.07022 12.5639M8.7074 15.121L8.07022 12.5639M7.82571 13H8.32571C8.32571 13.0694 8.32858 13.1388 8.33433 13.2079C8.67306 13.3186 9.17688 13.4406 9.83339 13.4838C9.83404 13.3443 9.8429 13.175 9.85935 12.9844M7.82571 13C8.07236 12.5651 8.07219 12.565 8.07203 12.5649L8.07236 12.5651L7.82571 13ZM9.85935 12.9844C9.32784 12.9489 8.90933 12.8584 8.61129 12.7704C8.42027 12.7141 8.27843 12.6587 8.18785 12.6194C8.14257 12.5998 8.11012 12.5842 8.09077 12.5745C8.08109 12.5696 8.0747 12.5662 8.07162 12.5646C8.07129 12.5644 8.07142 12.5645 8.07117 12.5644C8.07097 12.5643 8.07037 12.5639 8.07022 12.5639M15.4471 6.40419C16.7196 7.67381 17.3563 9.3378 17.3563 11C17.3563 12.6622 16.7195 14.3262 15.4471 15.5958L15.4471 6.40419ZM7.08197 6.75701C7.08197 7.87685 7.14736 8.83439 7.53091 9.62838L7.08197 6.75701Z" fill="white" stroke="white"/>
</svg>
