<svg width="26" height="24" viewBox="0 0 26 24" fill="none" xmlns="http://www.w3.org/2000/svg">
<path d="M18.0155 8H20.0216C20.5536 8 21.0639 8.21071 21.4401 8.58579C21.8163 8.96086 22.0277 9.46957 22.0277 10V16C22.0277 16.5304 21.8163 17.0391 21.4401 17.4142C21.0639 17.7893 20.5536 18 20.0216 18H18.0155V22L14.0032 18H9.991C9.72753 18.0003 9.4666 17.9486 9.2232 17.8481C8.9798 17.7475 8.75872 17.6 8.57268 17.414M8.57268 17.414L11.9971 14H16.0094C16.5414 14 17.0517 13.7893 17.4279 13.4142C17.8041 13.0391 18.0155 12.5304 18.0155 12V6C18.0155 5.46957 17.8041 4.96086 17.4279 4.58579C17.0517 4.21071 16.5414 4 16.0094 4H5.97877C5.44672 4 4.93645 4.21071 4.56023 4.58579C4.18401 4.96086 3.97266 5.46957 3.97266 6V12C3.97266 12.5304 4.18401 13.0391 4.56023 13.4142C4.93645 13.7893 5.44672 14 5.97877 14H7.98489V18L8.57268 17.414Z" stroke="white" stroke-width="1.5" stroke-linecap="round" stroke-linejoin="round"/>
</svg>
