<svg width="25" height="24" viewBox="0 0 25 24" fill="none" xmlns="http://www.w3.org/2000/svg">
<path d="M13.5654 20.7769L7.62695 14.5884C7.55643 14.5179 7.50098 14.433 7.4606 14.3336C7.42022 14.2343 7.40002 14.1291 7.40002 14.0183V13.5192C7.40002 13.2849 7.47927 13.0885 7.63775 12.93C7.79625 12.7715 7.99264 12.6923 8.22692 12.6923H10.65C11.5974 12.6923 12.4385 12.3888 13.1731 11.7817C13.9077 11.1747 14.3128 10.3628 14.3885 9.34613H7.15C6.9375 9.34613 6.75938 9.27422 6.61565 9.1304C6.4719 8.98658 6.40002 8.80838 6.40002 8.5958C6.40002 8.38322 6.4719 8.20513 6.61565 8.06153C6.75938 7.91794 6.9375 7.84615 7.15 7.84615H14.1846C13.9398 7.16025 13.4981 6.59774 12.8596 6.15863C12.2212 5.71953 11.4846 5.49998 10.65 5.49998H7.15C6.9375 5.49998 6.75938 5.42807 6.61565 5.28425C6.4719 5.14045 6.40002 4.96225 6.40002 4.74965C6.40002 4.53707 6.4719 4.35898 6.61565 4.2154C6.75938 4.0718 6.9375 4 7.15 4H17.15C17.3625 4 17.5406 4.07191 17.6844 4.21573C17.8281 4.35954 17.9 4.53774 17.9 4.75033C17.9 4.96293 17.8281 5.14102 17.6844 5.2846C17.5406 5.42818 17.3625 5.49998 17.15 5.49998H14.3038C14.6589 5.78331 14.9698 6.1285 15.2365 6.53555C15.5032 6.94262 15.6833 7.37948 15.7769 7.84615H17.15C17.3625 7.84615 17.5406 7.91806 17.6844 8.06188C17.8281 8.20568 17.9 8.38388 17.9 8.59648C17.9 8.80906 17.8281 8.98715 17.6844 9.13075C17.5406 9.27433 17.3625 9.34613 17.15 9.34613H15.9038C15.8346 10.7628 15.2897 11.9247 14.2692 12.8317C13.2487 13.7387 12.0423 14.1923 10.65 14.1923H9.33842L14.65 19.7231C14.8795 19.9628 14.9291 20.2355 14.799 20.5413C14.6689 20.8471 14.4386 21 14.1082 21C14.0066 21 13.9093 20.9814 13.8163 20.9442C13.7234 20.907 13.6397 20.8512 13.5654 20.7769Z" fill="#C55637"/>
</svg>
