<svg width="25" height="24" viewBox="0 0 25 24" fill="none" xmlns="http://www.w3.org/2000/svg">
<path d="M9.27543 19V13C9.27543 12.4696 9.06407 11.9609 8.68785 11.5858C8.31163 11.2107 7.80137 11 7.26931 11H5.2632C4.73114 11 4.22088 11.2107 3.84466 11.5858C3.46844 11.9609 3.25708 12.4696 3.25708 13V19C3.25708 19.5304 3.46844 20.0391 3.84466 20.4142C4.22088 20.7893 4.73114 21 5.2632 21H7.26931C7.80137 21 8.31163 20.7893 8.68785 20.4142C9.06407 20.0391 9.27543 19.5304 9.27543 19ZM9.27543 19V9C9.27543 8.46957 9.48679 7.96086 9.86301 7.58579C10.2392 7.21071 10.7495 7 11.2815 7H13.2877C13.8197 7 14.33 7.21071 14.7062 7.58579C15.0824 7.96086 15.2938 8.46957 15.2938 9V19M9.27543 19C9.27543 19.5304 9.48679 20.0391 9.86301 20.4142C10.2392 20.7893 10.7495 21 11.2815 21H13.2877C13.8197 21 14.33 20.7893 14.7062 20.4142C15.0824 20.0391 15.2938 19.5304 15.2938 19M15.2938 19V5C15.2938 4.46957 15.5051 3.96086 15.8814 3.58579C16.2576 3.21071 16.7678 3 17.2999 3H19.306C19.8381 3 20.3483 3.21071 20.7245 3.58579C21.1008 3.96086 21.3121 4.46957 21.3121 5V19C21.3121 19.5304 21.1008 20.0391 20.7245 20.4142C20.3483 20.7893 19.8381 21 19.306 21H17.2999C16.7678 21 16.2576 20.7893 15.8814 20.4142C15.5051 20.0391 15.2938 19.5304 15.2938 19Z" stroke="white" stroke-width="1.5" stroke-linecap="round" stroke-linejoin="round"/>
</svg>
