<svg width="40" height="40" viewBox="0 0 40 40" fill="none" xmlns="http://www.w3.org/2000/svg"><path d="M15.0002 5L11.9502 8.33333H6.66683C4.8335 8.33333 3.3335 9.83333 3.3335 11.6667V31.6667C3.3335 33.5 4.8335 35 6.66683 35H33.3335C35.1668 35 36.6668 33.5 36.6668 31.6667V11.6667C36.6668 9.83333 35.1668 8.33333 33.3335 8.33333H28.0502L25.0002 5H15.0002ZM20.0002 30C15.4002 30 11.6668 26.2667 11.6668 21.6667C11.6668 17.0667 15.4002 13.3333 20.0002 13.3333C24.6002 13.3333 28.3335 17.0667 28.3335 21.6667C28.3335 26.2667 24.6002 30 20.0002 30Z" fill="#a82227"></path><path d="M20.0002 28.3333L22.0835 23.75L26.6668 21.6667L22.0835 19.5833L20.0002 15L17.9168 19.5833L13.3335 21.6667L17.9168 23.75L20.0002 28.3333Z" fill="#a82227"></path></svg>