<svg width="28" height="34" viewBox="0 0 28 34" fill="#ffffff" class="fill-path-primary-main" xmlns="http://www.w3.org/2000/svg"><path d="M23.4332 10.3337L13.9998 0.916992L4.5665 10.3337C1.9665 12.9337 0.666504 16.4003 0.666504 19.7337C0.666504 23.067 1.9665 26.5837 4.5665 29.1837C7.1665 31.7837 10.5832 33.1003 13.9998 33.1003C17.4165 33.1003 20.8332 31.7837 23.4332 29.1837C26.0332 26.5837 27.3332 23.067 27.3332 19.7337C27.3332 16.4003 26.0332 12.9337 23.4332 10.3337ZM3.99984 20.3337C4.0165 17.0003 5.03317 14.8837 6.93317 13.0003L13.9998 5.78366L21.0665 13.0837C22.9665 14.9503 23.9832 17.0003 23.9998 20.3337H3.99984Z"></path></svg>