<svg id="ic_citizen_engagement" xmlns="http://www.w3.org/2000/svg" width="24" height="24" viewBox="0 0 24 24">
  <rect id="Rectangle_9" data-name="Rectangle 9" width="24" height="24" fill="none"/>
  <g id="Group_6" data-name="Group 6">
    <path id="Path_9" data-name="Path 9" d="M0,0H24V24H0Z" fill="none"/>
    <path id="Path_10" data-name="Path 10" d="M15,4H5V20H19V8H15ZM3,2.992A1,1,0,0,1,4,2H16l5,5V20.993A1,1,0,0,1,20.007,22H3.993A1,1,0,0,1,3,21.008ZM12,11.5A2.5,2.5,0,1,1,14.5,9,2.5,2.5,0,0,1,12,11.5ZM7.527,17a4.5,4.5,0,0,1,8.946,0Z" fill="#696b74"/>
  </g>
</svg>
