<svg width="11" height="14" viewBox="0 0 11 14" fill="none" xmlns="http://www.w3.org/2000/svg">
<path d="M5.5 7C5.87813 7 6.20182 6.86292 6.47109 6.58875C6.74037 6.31458 6.875 5.985 6.875 5.6C6.875 5.215 6.74037 4.88542 6.47109 4.61125C6.20182 4.33708 5.87813 4.2 5.5 4.2C5.12187 4.2 4.79818 4.33708 4.52891 4.61125C4.25964 4.88542 4.125 5.215 4.125 5.6C4.125 5.985 4.25964 6.31458 4.52891 6.58875C4.79818 6.86292 5.12187 7 5.5 7ZM5.5 14C3.65521 12.4017 2.27734 10.9171 1.36641 9.54625C0.455469 8.17542 0 6.90667 0 5.74C0 3.99 0.552865 2.59583 1.65859 1.5575C2.76432 0.519167 4.04479 0 5.5 0C6.95521 0 8.23568 0.519167 9.34141 1.5575C10.4471 2.59583 11 3.99 11 5.74C11 6.90667 10.5445 8.17542 9.63359 9.54625C8.72266 10.9171 7.34479 12.4017 5.5 14Z" fill="#584F74"/>
</svg>
