<svg width="16" height="11" viewBox="0 0 16 11" fill="none" xmlns="http://www.w3.org/2000/svg">
<path d="M0 0.5C0 0.223858 0.223858 0 0.5 0H11.5C11.7761 0 12 0.223858 12 0.5C12 0.776142 11.7761 1 11.5 1H0.5C0.223858 1 0 0.776142 0 0.5ZM0 10.5C0 10.2239 0.223858 10 0.5 10H10.5C10.7761 10 11 10.2239 11 10.5C11 10.7761 10.7761 11 10.5 11H0.5C0.223858 11 0 10.7761 0 10.5ZM0.5 5C0.223858 5 0 5.22386 0 5.5C0 5.77614 0.223858 6 0.5 6H15.5C15.7761 6 16 5.77614 16 5.5C16 5.22386 15.7761 5 15.5 5H0.5Z" fill="#E66E53"/>
</svg>
