<svg xmlns="http://www.w3.org/2000/svg" width="325" height="106" fill="none" xmlns:v="https://vecta.io/nano"><g fill="#fff"><path d="M17.625 0l-.013 1.209v92.584 10.683.537c-.019.441-.19.72-.56.736s-.484-.33-.564-.671c-.047-.207-.012-.445-.012-.672V22.303.736L16.45.001 17.625 0zm2.341 52.895v50.54.544c.033.427-.233.58-.537.595a.54.54 0 0 1-.622-.594v-2.514V2.357c.006-.113.006-.227 0-.34-.049-.491.14-.815.601-.841.522-.022.566.39.566.84v21.942l-.009 28.938zM9.398 71.68v23.424.336c.022.522-.147.918-.597.91-.427-.009-.557-.454-.563-.904l-.01-3.557.008-43.69c0-.301-.071-.616.153-.882.168-.201.335-.385.569-.291a.59.59 0 0 1 .298.232.81.81 0 0 1 .136.398c.014.2.007.403.007.603L9.4 71.681zm5.873-2.345V91.47v.478c.024.534-.233.883-.601.877-.337 0-.563-.374-.565-.853V47.088v-.273c-.044-.57.15-.98.613-.989s.557.458.556.965v10.043 12.502h-.003zm-3.508 2.875V46.779c0-.4-.141-.925.5-.952.381-.02.611.152.655.564.008.159.008.317 0 .476v50.782.408a.64.64 0 0 1-.034.252.61.61 0 0 1-.128.214.56.56 0 0 1-.199.138.54.54 0 0 1-.235.038c-.348 0-.573-.226-.569-.656v-3.468V72.21h.009zm-4.716-4.015v16.46.329c.015.456-.109.768-.535.79s-.553-.346-.614-.733c-.047-.296-.008-.612-.008-.922V51.738c0-.327-.023-.647.167-.936a.6.6 0 0 1 .254-.231c.101-.047.211-.058.317-.032.11.017.212.081.286.18a.63.63 0 0 1 .12.362c.022.306.014.614.014.922v16.196l-.002-.004zm-2.349.54v18.25l-.014.465c0 .386-.153.666-.536.675-.404.011-.603-.249-.603-.675v-1.929l.009-35.167c0-.266-.126-.599.152-.799.202-.152.431-.288.699-.141.297.163.295.448.295.745v8.259V68.74l-.003-.004z"/><path d="M15.272 21.699v14.754.412a.91.91 0 0 1-.05.286.78.78 0 0 1-.134.24c-.057.068-.124.122-.198.158s-.152.053-.231.051c-.301 0-.496-.346-.551-.739a3.65 3.65 0 0 1 0-.479V7.149c0-.315-.053-.644.154-.909.154-.198.312-.457.551-.331s.452.31.452.695v.479V21.7h.008zm-3.521 2.385V10.272c0-.349 0-.685.378-.835.283-.115.485.062.67.249s.112.464.112.7v16.286 11.193c0 .338.034.671-.349.844-.408.18-.764-.016-.798-.488-.023-.311-.01-.625-.01-.939l-.003-13.198zM9.4 21.216v8.292c0 .543-.067 1.056-.579 1.042-.478-.013-.596-.498-.596-1.044V12.851c0-.518.08-1.014.563-1.095.374-.062.608.398.608 1.098v8.363H9.4zM1.17 65.795v9.521c.01.187.004.375-.018.561a.58.58 0 0 1-.178.363.48.48 0 0 1-.356.13c-.139.021-.28-.02-.392-.113s-.186-.232-.205-.384c-.02-.162-.026-.325-.017-.488V56.202c-.004-.163 0-.326.013-.489.036-.346.291-.475.54-.486.282-.014.552.116.598.491a5.44 5.44 0 0 1 .015.629v9.449z"/></g><path fill-rule="evenodd" d="M34.291 26.383c.18-.019.359-.048.536-.087.812-.221 1.237.056 1.123.854-.212 1.422-.814 2.717-1.611 3.916-.302.456-.811.646-1.363.625-.335-.013-.45.087-.55.41l-.212.662c-.428 1.343-.856 2.687-1.585 3.917-.864 1.455-2.174 2.486-3.483 3.517l-.139.109-.115.091a4.17 4.17 0 0 0-.283.253h0l-.108.102-.221.099c-.719.423-1.379.934-1.964 1.521.786-.402 1.566-.804 2.256-1.347.019-.003.037-.011.052-.024s.023-.031.027-.049a2.32 2.32 0 0 0 .372-.165c.075-.05.154-.112.235-.175.255-.199.524-.41.727-.285.189.117.151.423.113.722l-.03.35v5.695c0 .419.137.637.539.797l5.036 2.012 2.4.965 6.69 2.672.976.392 2.495.977c.584.218.962.418.733 1.175l-.743 2.885-.3 1.255-2.073 8.365-2.875 11.607-.676 2.772v.002l-.002.008v.002l-.411 1.69a1.63 1.63 0 0 1-.658 1.039L22.837 97.346c-.025.018-.05.039-.075.061-.095.082-.196.169-.337.081-.105-.063-.095-.171-.086-.275l.005-.095-.002-.536.002-.268-.018-88.445c0-.704.194-.875.88-.804 4.852.481 8.522 2.749 10.876 6.916 1.215 2.144 1.658 4.509 1.471 6.963-.101 1.266-.386 2.511-.845 3.699-.139.365-.253.741-.366 1.116l-.162.525v.158l.113-.058zm-7.212 2.005c-.013.524-.211.878-.564 1.052.356-.174.554-.527.564-1.052zm-2.71-.994c.01.053.006.114.003.176-.011.183-.023.374.322.395.121.008.209-.009.272-.043a.53.53 0 0 1-.256.037c-.353-.018-.342-.21-.332-.394.003-.061.007-.121-.003-.173l-.005.003zm.011-.127c.04-.531.275-.851.713-.975-.435.119-.672.437-.713.975zm1.469-.309a.52.52 0 0 1-.177.013c-.162-.011-.299.004-.397.063.096-.053.228-.067.38-.056a.51.51 0 0 0 .193-.019zm-1.41 40.293c-.009.05-.014.099-.014.143a.88.88 0 0 1 .014-.143zm2.664.65a.68.68 0 0 1 .004-.136c.014-.156.029-.321-.27-.328-.291-.008-.412.134-.426.402-.019.449-.209.693-.722.654-.298-.023-.334.215-.337.441.003-.224.04-.458.337-.435.513.039.702-.205.722-.654.012-.268.137-.41.426-.402.298.007.283.17.27.325-.004.049-.009.097-.003.139-.016.513-.183.886-.478 1.102.297-.216.465-.589.478-1.102v-.005zm-1.15-1.999c-.03 0-.061.001-.089-.001a1.32 1.32 0 0 0 .089.001z" fill="#fc3e3c"/><path d="M79.272 39.63h2.24c3.072 0 4.608 1.856 4.608 5.568 0 3.84-1.6 5.568-4.608 5.568h-2.24V39.63zM67.368 76.75h11.904V59.342h4.16c9.728 0 14.976-4.8 14.976-14.208 0-7.936-4.096-14.08-13.184-14.08H67.368V76.75zm51.143-21.632h-6.336v-1.536c0-3.648.768-5.312 3.136-5.312 2.496 0 3.2 1.664 3.2 5.312v1.536zm10.752 6.272v-3.52c0-12.544-4.672-16.64-13.888-16.64-10.432 0-14.72 4.992-14.72 18.24 0 13.12 3.648 18.176 14.72 18.176 9.536 0 13.376-4.608 13.568-13.056h-10.368c0 4.736-1.216 6.016-3.264 6.016-1.6 0-3.136-.896-3.136-4.672V61.39h17.088zm3.229 15.36h11.52V53.902c0-2.88.768-4.096 2.816-4.096s2.816 1.216 2.816 4.096V76.75h11.52V50.638c0-7.232-4.224-9.408-9.024-9.408-2.816 0-6.016 1.088-8 4.736h-.128V31.054h-11.52V76.75zm60.834-21.056c0-8.64-2.88-14.464-13.12-14.464-8.64 0-15.488 2.432-15.488 18.816 0 14.912 6.016 17.6 14.912 17.6 4.928 0 8.448-1.216 10.624-3.648 2.24-2.496 3.072-6.272 3.072-11.712h-10.368v2.24c0 4.352-1.216 5.696-3.328 5.696-2.624 0-3.392-2.24-3.392-10.752s.768-10.816 3.392-10.816c1.216 0 2.112.512 2.56 1.472.512 1.088.768 2.752.768 5.568h10.368zm3.228 21.056h11.52V53.902c0-2.88.768-4.096 2.816-4.096s2.816 1.216 2.816 4.096V76.75h11.52V50.638c0-7.232-4.224-9.408-9.024-9.408-2.816 0-6.016 1.088-8 4.736h-.128V31.054h-11.52V76.75zm45.794-6.848c-1.728 0-2.816-1.472-2.816-3.776s.576-3.648 2.368-4.48c1.728-.768 3.2-.64 3.904-1.6h.128v4.16c0 3.84-1.024 5.696-3.584 5.696zm15.424 6.848c-.96-1.792-1.088-4.224-1.088-7.488V52.366c0-8.96-5.632-11.136-13.696-11.136-5.248 0-13.248 1.664-13.248 11.648h9.984c.064-3.648 1.024-4.608 3.264-4.608 1.984 0 2.944 1.088 2.944 3.2s-.896 3.2-3.392 3.776l-4.544 1.088c-7.36 1.728-9.6 4.736-9.6 11.136 0 5.888 2.624 10.176 9.6 10.176 3.52 0 6.528-1.728 7.808-4.8h.128c.192 1.472.256 2.688.704 3.904h11.136zm16.576-6.848c-1.728 0-2.816-1.472-2.816-3.776s.576-3.648 2.368-4.48c1.728-.768 3.2-.64 3.904-1.6h.128v4.16c0 3.84-1.024 5.696-3.584 5.696zm15.424 6.848c-.96-1.792-1.088-4.224-1.088-7.488V52.366c0-8.96-5.632-11.136-13.696-11.136-5.248 0-13.248 1.664-13.248 11.648h9.984c.064-3.648 1.024-4.608 3.264-4.608 1.984 0 2.944 1.088 2.944 3.2s-.896 3.2-3.392 3.776l-4.544 1.088c-7.36 1.728-9.6 4.736-9.6 11.136 0 5.888 2.624 10.176 9.6 10.176 3.52 0 6.528-1.728 7.808-4.8h.128c.192 1.472.256 2.688.704 3.904h11.136zm4.032 0h11.52V53.902c0-2.88.768-4.096 2.816-4.096s2.816 1.216 2.816 4.096V76.75h11.52V50.638c0-7.424-3.968-9.408-9.024-9.408-4.032 0-6.912 1.728-8.384 5.12h-.128v-4.224h-11.136V76.75zm-226.694-53h5.22V7.79h.06l2.97 15.96h4.02l2.97-15.96h.06v15.96h5.22V2.33h-7.98L77.4 15.02h-.06L75.09 2.33h-7.98v21.42zm30.594-10.14h-2.97v-.72c0-1.71.36-2.49 1.47-2.49 1.17 0 1.5.78 1.5 2.49v.72zm5.04 2.94V14.9c0-5.88-2.19-7.8-6.51-7.8-4.89 0-6.9 2.34-6.9 8.55 0 6.15 1.71 8.52 6.9 8.52 4.47 0 6.27-2.16 6.36-6.12h-4.86c0 2.22-.57 2.82-1.53 2.82-.75 0-1.47-.42-1.47-2.19v-2.13h8.01zm1.364 7.2h5.4V14.9c0-2.16 1.11-2.88 3.03-2.88a7.05 7.05 0 0 1 1.35.12V7.1h-.87c-1.59 0-3.03 1.05-3.63 3h-.06V7.52h-5.22v16.23zm10.787-17.4h5.4V2.33h-5.4v4.02zm0 17.4h5.4V7.52h-5.4v16.23zM67.75 89.04v10.71h1.98v-7.5h.03l2.64 7.5h2.46V89.04h-1.98v7.335h-.03l-2.61-7.335h-2.49zm16.368 1.86h.03l1.035 4.815h-2.1l1.035-4.815zm-4.155 8.85h2.25l.495-2.265h2.85l.495 2.265h2.25l-2.835-10.71h-2.67l-2.835 10.71zm12.045-10.71v1.77h2.34v8.94h2.16v-8.94h2.34v-1.77h-6.84zM106.4 99.75V89.04h-2.16v10.71h2.16zm5.727-5.355c0 3.255.405 5.565 3.645 5.565s3.645-2.31 3.645-5.565-.405-5.565-3.645-5.565-3.645 2.31-3.645 5.565zm2.16 0c0-2.865.21-3.975 1.485-3.975s1.485 1.11 1.485 3.975c0 2.88-.21 3.975-1.485 3.975s-1.485-1.095-1.485-3.975zm10.75-5.355v10.71h1.98v-7.5h.03l2.64 7.5h2.46V89.04h-1.98v7.335h-.03l-2.61-7.335h-2.49zm16.368 1.86h.03l1.035 4.815h-2.1l1.035-4.815zm-4.155 8.85h2.25l.495-2.265h2.85l.495 2.265h2.25l-2.835-10.71h-2.67l-2.835 10.71zm19.42 0v-1.77h-3.825v-8.94h-2.16v10.71h5.985zm12.842-3.345v.435c0 1.98.96 3.12 3.405 3.12 2.34 0 3.72-1.02 3.72-3.285 0-1.32-.42-2.115-2.04-2.835l-1.665-.72c-.915-.375-1.11-.795-1.11-1.455 0-.645.255-1.245 1.23-1.245.84 0 1.17.57 1.17 1.59h2.07v-.3c0-2.055-1.395-2.88-3.315-2.88-2.055 0-3.315 1.05-3.315 3.15 0 1.77.885 2.595 2.805 3.24 1.44.48 1.92.87 1.92 1.83 0 .9-.63 1.32-1.29 1.32-1.14 0-1.425-.645-1.425-1.65v-.315h-2.16zm14.814 3.345V89.04h-2.16v10.71h2.16zm5.952-10.71v10.71h1.98v-7.5h.03l2.64 7.5h2.46V89.04h-1.98v7.335h-.03l-2.61-7.335h-2.49zm19.788 3.18c0-2.175-.975-3.39-3.33-3.39-2.76 0-3.6 1.845-3.6 5.445 0 3.705.525 5.685 3.18 5.685 1.02 0 1.725-.36 2.25-1.2h.03v.99h1.59v-5.775h-3.495v1.59h1.425v1.095c0 1.155-.81 1.71-1.335 1.71-1.245 0-1.485-1.62-1.485-4.2 0-2.685.435-3.75 1.47-3.75.885 0 1.23 1.02 1.23 1.8h2.07zm11.845 7.53v-1.77h-3.825v-8.94h-2.16v10.71h5.985zm5.308-10.71v10.71h6.135v-1.77h-3.975V95.1h3.6v-1.77h-3.6v-2.52h3.825v-1.77h-5.985zm19.106 7.365v.435c0 1.98.96 3.12 3.405 3.12 2.34 0 3.72-1.02 3.72-3.285 0-1.32-.42-2.115-2.04-2.835l-1.665-.72c-.915-.375-1.11-.795-1.11-1.455 0-.645.255-1.245 1.23-1.245.84 0 1.17.57 1.17 1.59h2.07v-.3c0-2.055-1.395-2.88-3.315-2.88-2.055 0-3.315 1.05-3.315 3.15 0 1.77.885 2.595 2.805 3.24 1.44.48 1.92.87 1.92 1.83 0 .9-.63 1.32-1.29 1.32-1.14 0-1.425-.645-1.425-1.65v-.315h-2.16zm14.813 3.345V89.04h-2.16v10.71h2.16zm12.777-7.53c0-2.175-.975-3.39-3.33-3.39-2.76 0-3.6 1.845-3.6 5.445 0 3.705.525 5.685 3.18 5.685 1.02 0 1.725-.36 2.25-1.2h.03v.99h1.59v-5.775h-3.495v1.59h1.425v1.095c0 1.155-.81 1.71-1.335 1.71-1.245 0-1.485-1.62-1.485-4.2 0-2.685.435-3.75 1.47-3.75.885 0 1.23 1.02 1.23 1.8h2.07zm5.86-3.18v10.71h1.98v-7.5h.03l2.64 7.5h2.46V89.04h-1.98v7.335h-.03l-2.61-7.335h-2.49zm12.873 5.49v1.77h4.23v-1.77h-4.23zm9.767-.135c0 3.255.405 5.565 3.645 5.565s3.645-2.31 3.645-5.565-.405-5.565-3.645-5.565-3.645 2.31-3.645 5.565zm2.16 0c0-2.865.21-3.975 1.485-3.975s1.485 1.11 1.485 3.975c0 2.88-.21 3.975-1.485 3.975s-1.485-1.095-1.485-3.975zm10.75-5.355v10.71h1.98v-7.5h.03l2.64 7.5h2.46V89.04h-1.98v7.335h-.03l-2.61-7.335h-2.49z" fill="#fff"/><path stroke="#fff" d="M65 82.25h259"/></svg>