<svg width="25" height="24" viewBox="0 0 25 24" fill="none" xmlns="http://www.w3.org/2000/svg">
<path d="M19.0581 21V5C19.0581 4.46957 18.8467 3.96086 18.4705 3.58579C18.0943 3.21071 17.584 3 17.052 3H7.02139C6.48933 3 5.97907 3.21071 5.60285 3.58579C5.22663 3.96086 5.01527 4.46957 5.01527 5V21M19.0581 21H5.01527M19.0581 21H21.0642M19.0581 21H14.0428M5.01527 21H3.00916M5.01527 21H10.0306M14.0428 21V16C14.0428 15.7348 13.9371 15.4804 13.749 15.2929C13.5609 15.1054 13.3058 15 13.0397 15H11.0336C10.7676 15 10.5125 15.1054 10.3244 15.2929C10.1362 15.4804 10.0306 15.7348 10.0306 16V21M14.0428 21H10.0306M9.0275 7H10.0306M9.0275 11H10.0306M14.0428 7H15.0459M14.0428 11H15.0459" stroke="black" stroke-width="1.5" stroke-linecap="round" stroke-linejoin="round"/>
</svg>
