<svg width="34" height="30" viewBox="0 0 34 30" fill="#ffffff" class="fill-path-primary-main" xmlns="http://www.w3.org/2000/svg"><path d="M16.9999 6.66667V0H0.333252V30H33.6666V6.66667H16.9999ZM6.99992 26.6667H3.66659V23.3333H6.99992V26.6667ZM6.99992 20H3.66659V16.6667H6.99992V20ZM6.99992 13.3333H3.66659V10H6.99992V13.3333ZM6.99992 6.66667H3.66659V3.33333H6.99992V6.66667ZM13.6666 26.6667H10.3333V23.3333H13.6666V26.6667ZM13.6666 20H10.3333V16.6667H13.6666V20ZM13.6666 13.3333H10.3333V10H13.6666V13.3333ZM13.6666 6.66667H10.3333V3.33333H13.6666V6.66667ZM30.3333 26.6667H16.9999V23.3333H20.3333V20H16.9999V16.6667H20.3333V13.3333H16.9999V10H30.3333V26.6667ZM26.9999 13.3333H23.6666V16.6667H26.9999V13.3333ZM26.9999 20H23.6666V23.3333H26.9999V20Z"></path></svg>