<svg width="25" height="24" viewBox="-2 -4 25 24" fill="none" xmlns="http://www.w3.org/2000/svg">
<path d="M16.3793 0C16.69 0 16.9685 0.191513 17.0796 0.481588C17.6403 1.94433 18.6887 2.49668 19.25 2.49668C19.6642 2.49668 20 2.83247 20 3.24668C20 3.66089 19.6642 3.99668 19.25 3.99668C18.2478 3.99668 17.1628 3.38604 16.377 2.31043C15.5631 3.40336 14.4056 3.99668 13.1897 3.99675C11.9726 3.99681 10.814 3.40246 10 2.30765C9.18602 3.40246 8.02744 3.99681 6.81035 3.99681C5.59467 3.99681 4.43737 3.40384 3.62354 2.31148C2.83783 3.38835 1.7527 3.99998 0.750017 4C0.335804 4.00001 9.53695e-06 3.66423 2.03141e-10 3.25002C-9.53654e-06 2.8358 0.335769 2.50001 0.749983 2.5C1.31079 2.49999 2.35947 1.94726 2.92026 0.482382C3.03134 0.192222 3.30983 0.000594199 3.62053 0.000526607C3.93122 0.000459075 4.20979 0.191966 4.321 0.482078C4.86477 1.90063 5.89012 2.49681 6.81035 2.49681C7.73057 2.49681 8.75592 1.90063 9.29969 0.482078C9.41088 0.192022 9.68936 0.000526607 10 0.000526607C10.3106 0.000526607 10.5891 0.192022 10.7003 0.482078C11.2441 1.90064 12.2694 2.49679 13.1896 2.49675C14.1098 2.4967 15.1352 1.90044 15.679 0.481588C15.7902 0.191513 16.0687 0 16.3793 0ZM16.3793 6C16.69 6 16.9685 6.19151 17.0796 6.48159C17.6403 7.94433 18.6887 8.49668 19.25 8.49668C19.6642 8.49668 20 8.83247 20 9.24668C20 9.66089 19.6642 9.99668 19.25 9.99668C18.2478 9.99668 17.1628 9.38604 16.377 8.31042C15.5631 9.40336 14.4056 9.99669 13.1897 9.99675C11.9726 9.99681 10.814 9.40246 10 8.30765C9.18602 9.40246 8.02744 9.99681 6.81035 9.99681C5.59467 9.99681 4.43737 9.40384 3.62354 8.31148C2.83783 9.38835 1.7527 9.99998 0.750017 10C0.335804 10 9.53695e-06 9.66423 2.03141e-10 9.25002C-9.53654e-06 8.8358 0.335769 8.50001 0.749983 8.5C1.31079 8.49999 2.35947 7.94726 2.92026 6.48238C3.03134 6.19222 3.30983 6.00059 3.62053 6.00053C3.93122 6.00046 4.20979 6.19197 4.321 6.48208C4.86477 7.90063 5.89012 8.49681 6.81035 8.49681C7.73057 8.49681 8.75592 7.90063 9.29969 6.48208C9.41088 6.19202 9.68936 6.00053 10 6.00053C10.3106 6.00053 10.5891 6.19202 10.7003 6.48208C11.2441 7.90064 12.2694 8.49679 13.1896 8.49675C14.1098 8.4967 15.1352 7.90044 15.679 6.48159C15.7902 6.19151 16.0687 6 16.3793 6ZM17.0796 12.4816C16.9685 12.1915 16.69 12 16.3793 12C16.0687 12 15.7902 12.1915 15.679 12.4816C15.1352 13.9004 14.1098 14.4967 13.1896 14.4967C12.2694 14.4968 11.2441 13.9006 10.7003 12.4821C10.5891 12.192 10.3106 12.0005 10 12.0005C9.68936 12.0005 9.41088 12.192 9.29969 12.4821C8.75592 13.9006 7.73057 14.4968 6.81035 14.4968C5.89012 14.4968 4.86477 13.9006 4.321 12.4821C4.20979 12.192 3.93122 12.0005 3.62053 12.0005C3.30983 12.0006 3.03134 12.1922 2.92026 12.4824C2.35947 13.9473 1.31079 14.5 0.749983 14.5C0.335769 14.5 -9.53654e-06 14.8358 2.03141e-10 15.25C9.53695e-06 15.6642 0.335804 16 0.750017 16C1.7527 16 2.83783 15.3884 3.62354 14.3115C4.43737 15.4038 5.59467 15.9968 6.81035 15.9968C8.02744 15.9968 9.18602 15.4025 10 14.3076C10.814 15.4025 11.9726 15.9968 13.1897 15.9967C14.4056 15.9967 15.5631 15.4034 16.377 14.3104C17.1628 15.386 18.2478 15.9967 19.25 15.9967C19.6642 15.9967 20 15.6609 20 15.2467C20 14.8325 19.6642 14.4967 19.25 14.4967C18.6887 14.4967 17.6403 13.9443 17.0796 12.4816Z" fill="#0F6CBD"/>
</svg>
